<?xml version="1.0" standalone="yes"?>

<svg version="1.1" viewBox="0.0 0.0 960.0 720.0" fill="none" stroke="none" stroke-linecap="square" stroke-miterlimit="10" xmlns="http://www.w3.org/2000/svg" xmlns:xlink="http://www.w3.org/1999/xlink"><clipPath id="p.0"><path d="m0 0l960.0 0l0 720.0l-960.0 0l0 -720.0z" clip-rule="nonzero"></path></clipPath><g clip-path="url(#p.0)"><path fill="#000000" fill-opacity="0.0" d="m0 0l960.0 0l0 720.0l-960.0 0z" fill-rule="evenodd"></path><path fill="#cccccc" d="m394.98923 15.998688l109.97064 193.65997l-45.361633 22.83786l138.5159 165.94876l-45.361633 27.711212l171.24646 277.84473l-290.41476 -212.93042l55.386322 -29.558624l-180.44409 -136.39014l64.65912 -42.140167l-190.51888 -143.07903z" fill-rule="evenodd"></path><path stroke="#000000" stroke-width="1.0" stroke-linejoin="round" stroke-linecap="butt" d="m394.98923 15.998688l109.97064 193.65997l-45.361633 22.83786l138.5159 165.94876l-45.361633 27.711212l171.24646 277.84473l-290.41476 -212.93042l55.386322 -29.558624l-180.44409 -136.39014l64.65912 -42.140167l-190.51888 -143.07903z" fill-rule="evenodd"></path></g></svg>

