<?xml version="1.0" standalone="yes"?>

<svg version="1.1" viewBox="0.0 0.0 960.0 720.0" fill="none" stroke="none" stroke-linecap="square" stroke-miterlimit="10" xmlns="http://www.w3.org/2000/svg" xmlns:xlink="http://www.w3.org/1999/xlink"><clipPath id="p.0"><path d="m0 0l960.0 0l0 720.0l-960.0 0l0 -720.0z" clip-rule="nonzero"></path></clipPath><g clip-path="url(#p.0)"><path fill="#000000" fill-opacity="0.0" d="m0 0l960.0 0l0 720.0l-960.0 0z" fill-rule="evenodd"></path><path fill="#e69138" d="m196.18388 393.49615l235.49019 -174.6536l-80.724396 -108.83464l379.124 56.228394l-56.22638 379.11017l-80.724365 -108.834656l-235.49023 174.65363z" fill-rule="evenodd"></path><path stroke="#000000" stroke-width="1.0" stroke-linejoin="round" stroke-linecap="butt" d="m196.18388 393.49615l235.49019 -174.6536l-80.724396 -108.83464l379.124 56.228394l-56.22638 379.11017l-80.724365 -108.834656l-235.49023 174.65363z" fill-rule="evenodd"></path><path fill="#000000" fill-opacity="0.0" d="m373.63254 230.45407l227.71652 0l0 190.83466l-227.71652 0z" fill-rule="evenodd"></path><path fill="#ffffff" d="m499.75058 394.5322l-24.90625 0q-0.09375 -5.359375 -0.09375 -6.53125q0 -12.109375 4.0 -19.921875q4.0 -7.8125 16.015625 -17.578125q12.015625 -9.765625 14.359375 -12.796875q3.6094055 -4.78125 3.6094055 -10.546875q0 -8.015625 -6.4062805 -13.71875q-6.390625 -5.71875 -17.21875 -5.71875q-10.453125 0 -17.484375 5.96875q-7.03125 5.953125 -9.671875 18.15625l-25.1875 -3.125q1.0625 -17.484375 14.875 -29.6875q13.828125 -12.203125 36.296875 -12.203125q23.625 0 37.59378 12.359375q13.96875 12.34375 13.96875 28.75q0 9.078125 -5.140625 17.1875q-5.125 8.109375 -21.921875 22.0625q-8.6875305 7.234375 -10.7969055 11.625q-2.09375 4.390625 -1.890625 15.71875zm-24.90625 36.921875l0 -27.4375l27.4375 0l0 27.4375l-27.4375 0z" fill-rule="nonzero"></path></g></svg>

