<?xml version="1.0" standalone="yes"?>

<svg version="1.1" viewBox="0.0 0.0 960.0 720.0" fill="none" stroke="none" stroke-linecap="square" stroke-miterlimit="10" xmlns="http://www.w3.org/2000/svg" xmlns:xlink="http://www.w3.org/1999/xlink"><clipPath id="p.0"><path d="m0 0l960.0 0l0 720.0l-960.0 0l0 -720.0z" clip-rule="nonzero"></path></clipPath><g clip-path="url(#p.0)"><path fill="#000000" fill-opacity="0.0" d="m0 0l960.0 0l0 720.0l-960.0 0z" fill-rule="evenodd"></path><path fill="#ffff00" d="m102.272964 454.23358l0 0c0 -103.09894 88.21753 -186.67715 197.03938 -186.67715c108.82184 0 197.03937 83.57822 197.03937 186.67715c0 103.09894 -88.21753 186.67719 -197.03937 186.67719c-108.82185 0 -197.03938 -83.57825 -197.03938 -186.67719z" fill-rule="evenodd"></path><path fill="#cbcb00" d="m215.66182 398.4033c0 -10.739471 9.189331 -19.445526 20.524948 -19.445526c11.335602 0 20.524933 8.706055 20.524933 19.445526c0 10.739471 -9.189331 19.445557 -20.524933 19.445557c-11.335617 0 -20.524948 -8.706085 -20.524948 -19.445557m126.251144 0c0 -10.739471 9.189331 -19.445526 20.524933 -19.445526c11.335632 0 20.524963 8.706055 20.524963 19.445526c0 10.739471 -9.189331 19.445557 -20.524963 19.445557c-11.335602 0 -20.524933 -8.706085 -20.524933 -19.445557" fill-rule="evenodd"></path><path fill="#000000" fill-opacity="0.0" d="m192.5157 535.6448q106.796646 69.48871 213.34386 0" fill-rule="evenodd"></path><path fill="#000000" fill-opacity="0.0" d="m102.272964 454.23358l0 0c0 -103.09894 88.21753 -186.67715 197.03938 -186.67715c108.82184 0 197.03937 83.57822 197.03937 186.67715c0 103.09894 -88.21753 186.67719 -197.03937 186.67719c-108.82185 0 -197.03938 -83.57825 -197.03938 -186.67719z" fill-rule="evenodd"></path><path stroke="#000000" stroke-width="1.0" stroke-linejoin="round" stroke-linecap="butt" d="m215.66182 398.4033c0 -10.739471 9.189331 -19.445526 20.524948 -19.445526c11.335602 0 20.524933 8.706055 20.524933 19.445526c0 10.739471 -9.189331 19.445557 -20.524933 19.445557c-11.335617 0 -20.524948 -8.706085 -20.524948 -19.445557m126.251144 0c0 -10.739471 9.189331 -19.445526 20.524933 -19.445526c11.335632 0 20.524963 8.706055 20.524963 19.445526c0 10.739471 -9.189331 19.445557 -20.524963 19.445557c-11.335602 0 -20.524933 -8.706085 -20.524933 -19.445557" fill-rule="evenodd"></path><path stroke="#000000" stroke-width="1.0" stroke-linejoin="round" stroke-linecap="butt" d="m192.5157 535.6448q106.796646 69.48871 213.34386 0" fill-rule="evenodd"></path><path stroke="#000000" stroke-width="1.0" stroke-linejoin="round" stroke-linecap="butt" d="m102.272964 454.23358l0 0c0 -103.09894 88.21753 -186.67715 197.03938 -186.67715c108.82184 0 197.03937 83.57822 197.03937 186.67715c0 103.09894 -88.21753 186.67719 -197.03937 186.67719c-108.82185 0 -197.03938 -83.57825 -197.03938 -186.67719z" fill-rule="evenodd"></path><path fill="#ffffff" d="m518.19684 102.049866l0 0c0 -26.988022 21.878113 -48.86614 48.86615 -48.86614l16.81366 0l0 0l98.51965 0l181.01312 0c12.960144 0 25.389404 5.1483803 34.55359 14.312565c9.164185 9.164177 14.312561 21.593468 14.312561 34.553574l0 122.16536l0 0l0 73.29921l0 0c0 26.988037 -21.878113 48.86615 -48.86615 48.86615l-181.01312 0l-143.76251 95.43851l45.24286 -95.43851l-16.81366 0l0 0c-26.988037 0 -48.86615 -21.878113 -48.86615 -48.86615l0 0l0 -73.29921l0 0z" fill-rule="evenodd"></path><path stroke="#000000" stroke-width="1.0" stroke-linejoin="round" stroke-linecap="butt" d="m518.19684 102.049866l0 0c0 -26.988022 21.878113 -48.86614 48.86615 -48.86614l16.81366 0l0 0l98.51965 0l181.01312 0c12.960144 0 25.389404 5.1483803 34.55359 14.312565c9.164185 9.164177 14.312561 21.593468 14.312561 34.553574l0 122.16536l0 0l0 73.29921l0 0c0 26.988037 -21.878113 48.86615 -48.86615 48.86615l-181.01312 0l-143.76251 95.43851l45.24286 -95.43851l-16.81366 0l0 0c-26.988037 0 -48.86615 -21.878113 -48.86615 -48.86615l0 0l0 -73.29921l0 0z" fill-rule="evenodd"></path><path fill="#000000" fill-opacity="0.0" d="m617.72705 141.8084l264.5354 0l0 169.38582l-264.5354 0z" fill-rule="evenodd"></path><path fill="#000000" d="m628.60205 197.02902q-0.390625 0 -0.6875 -0.1875q-0.28125 -0.1875 -0.28125 -0.484375q0 -0.8125 1.015625 -1.0q1.671875 -0.390625 2.265625 -1.015625q0.609375 -0.625 0.609375 -2.109375l0 -21.796875q0 -1.578125 -0.546875 -2.203125q-0.546875 -0.625 -2.234375 -1.0625q-1.0625 -0.234375 -1.0625 -1.0q0 -0.34375 0.28125 -0.53125q0.296875 -0.1875 0.6875 -0.1875q1.78125 0 3.5 0.140625q2.203125 0.09375 3.078125 0.09375q0.8125 0 3.3125 -0.09375q2.59375 -0.09375 3.6875 -0.09375q0.875 0 0.875 0.71875q0 0.390625 -0.25 0.609375q-0.234375 0.203125 -0.765625 0.34375q-1.921875 0.53125 -2.546875 1.203125q-0.625 0.671875 -0.625 2.109375l0 8.640625q0 0.671875 0.765625 0.671875l12.671875 0q0.34375 0 0.484375 -0.140625q0.140625 -0.140625 0.140625 -0.53125l0 -8.640625q0 -1.4375 -0.59375 -2.109375q-0.59375 -0.671875 -2.515625 -1.203125q-0.578125 -0.140625 -0.828125 -0.34375q-0.234375 -0.21875 -0.234375 -0.609375q0 -0.71875 0.90625 -0.71875q1.109375 0 3.703125 0.09375q2.5 0.09375 3.40625 0.09375q0.859375 0 2.984375 -0.09375q1.671875 -0.140625 3.453125 -0.140625q0.375 0 0.65625 0.21875q0.296875 0.203125 0.296875 0.5q0 0.765625 -1.0 1.0q-1.734375 0.4375 -2.296875 1.09375q-0.546875 0.640625 -0.546875 2.171875l0 21.75q0 1.53125 0.578125 2.15625q0.578125 0.625 2.265625 1.015625q1.0 0.1875 1.0 1.0q0 0.296875 -0.296875 0.484375q-0.28125 0.1875 -0.609375 0.1875q-1.59375 0 -3.3125 -0.140625q-2.3125 -0.09375 -3.265625 -0.09375q-0.90625 0 -3.3125 0.09375q-1.921875 0.140625 -3.75 0.140625q-0.859375 0 -0.859375 -0.71875q0 -0.4375 0.234375 -0.625q0.25 -0.1875 0.78125 -0.328125q1.859375 -0.53125 2.5 -1.171875q0.65625 -0.65625 0.65625 -2.0l0 -8.984375q0 -0.8125 -0.5625 -0.8125l-12.828125 0q-0.671875 0 -0.671875 0.765625l0 8.984375q0 1.34375 0.71875 2.015625q0.71875 0.671875 2.546875 1.203125q0.53125 0.140625 0.765625 0.328125q0.25 0.1875 0.25 0.625q0 0.71875 -0.875 0.71875q-1.71875 0 -3.6875 -0.140625q-2.5 -0.09375 -3.40625 -0.09375q-1.59375 0 -3.3125 0.140625q-2.3125 0.09375 -3.3125 0.09375zm38.54181 0.09375q-0.4375 0 -0.734375 -0.21875q-0.28125 -0.203125 -0.28125 -0.5q0 -0.28125 0.265625 -0.5625q0.265625 -0.296875 0.796875 -0.4375q1.734375 -0.484375 2.375 -1.0625q0.65625 -0.578125 0.65625 -2.0625l0 -21.84375q0 -1.578125 -0.609375 -2.21875q-0.59375 -0.65625 -2.375 -1.046875q-1.109375 -0.234375 -1.109375 -1.0q0 -0.296875 0.28125 -0.5q0.296875 -0.21875 0.78125 -0.21875q1.828125 0 3.703125 0.140625q2.484375 0.09375 3.5 0.09375q5.90625 0 10.359375 -0.140625q1.5 0 2.546875 -0.171875q1.0625 -0.171875 1.203125 -0.171875q0.390625 0 0.765625 0.21875q0.390625 0.21875 0.4375 0.703125q0.09375 0.90625 0.375 2.734375q0.390625 2.59375 0.390625 3.5q0 0.4375 -0.203125 0.6875q-0.1875 0.234375 -0.421875 0.234375q-0.625 0 -0.90625 -0.78125q-0.15625 -0.328125 -0.515625 -1.1875q-0.359375 -0.875 -0.625 -1.390625q-0.25 -0.53125 -0.59375 -0.875q-1.484375 -1.484375 -3.453125 -1.484375l-3.609375 0q-1.046875 0 -1.8125 0.578125q-0.765625 0.578125 -0.765625 1.53125l0 9.078125q0 1.15625 1.1875 1.15625l4.234375 0q1.140625 0 1.6875 -0.703125q0.5625 -0.703125 1.09375 -2.1875q0.28125 -0.90625 0.953125 -0.90625q0.25 0 0.4375 0.296875q0.1875 0.28125 0.140625 0.75q-0.1875 2.40625 -0.1875 3.890625q0 2.015625 0.140625 3.890625l0.046875 0.390625q0 0.859375 -0.53125 0.859375q-0.328125 0 -0.640625 -0.328125q-0.3125 -0.34375 -0.453125 -0.875q-0.4375 -1.53125 -1.0 -2.25q-0.546875 -0.71875 -1.453125 -0.71875l-4.46875 0q-1.1875 0 -1.1875 1.09375l0 9.125q0 1.390625 0.609375 2.0q0.625 0.59375 1.921875 0.59375l4.140625 0q2.296875 0 3.640625 -1.0625q1.34375 -1.046875 2.734375 -3.828125q0.34375 -0.578125 0.921875 -0.578125q0.234375 0 0.34375 0.265625q0.125 0.25 0.125 0.640625q0 0.859375 -0.296875 2.046875q-0.28125 1.171875 -0.84375 2.953125q-0.25 0.671875 -0.390625 1.1875q-0.09375 0.296875 -0.40625 0.453125q-0.3125 0.171875 -0.65625 0.171875q-1.96875 0 -3.78125 -0.046875q-10.078125 -0.140625 -11.859375 -0.140625q-1.578125 0 -3.3125 0.140625q-2.3125 0.09375 -3.3125 0.09375zm27.646912 0q-0.4375 0 -0.71875 -0.21875q-0.28125 -0.203125 -0.28125 -0.5q0 -0.328125 0.28125 -0.59375q0.28125 -0.265625 0.71875 -0.40625q1.734375 -0.484375 2.375 -1.078125q0.65625 -0.609375 0.65625 -2.0l0 -21.984375q0 -1.578125 -0.609375 -2.15625q-0.59375 -0.578125 -2.515625 -1.015625q-1.015625 -0.234375 -1.015625 -1.0q0 -0.34375 0.28125 -0.53125q0.296875 -0.1875 0.6875 -0.1875q1.765625 0 3.640625 0.140625q2.3125 0.09375 3.21875 0.09375q0.96875 0 3.453125 -0.09375q2.6875 -0.09375 3.75 -0.09375q0.859375 0 0.859375 0.671875q0 0.4375 -0.25 0.65625q-0.234375 0.203125 -0.75 0.34375q-2.015625 0.578125 -2.6875 1.1875q-0.671875 0.59375 -0.671875 1.984375l0 21.609375q0 1.34375 0.5625 1.921875q0.578125 0.5625 2.03125 0.5625l4.890625 0q1.96875 0 3.40625 -1.296875q1.4375 -1.390625 2.546875 -3.78125q0.421875 -0.921875 0.703125 -1.234375q0.296875 -0.3125 0.59375 -0.3125q0.328125 0 0.5 0.3125q0.171875 0.3125 0.171875 0.65625q0 0.140625 -0.109375 0.40625q-0.09375 0.265625 -0.09375 0.546875q-0.71875 2.59375 -0.984375 3.75q-0.25 1.15625 -0.40625 2.734375q-0.09375 0.90625 -0.765625 0.90625l-5.515625 -0.09375q-10.515625 -0.140625 -11.140625 -0.140625q-1.8125 0 -3.84375 0.140625l-2.96875 0.09375zm28.128052 0q-0.4375 0 -0.71875 -0.21875q-0.28125 -0.203125 -0.28125 -0.5q0 -0.328125 0.28125 -0.59375q0.28125 -0.265625 0.71875 -0.40625q1.734375 -0.484375 2.375 -1.078125q0.65625 -0.609375 0.65625 -2.0l0 -21.984375q0 -1.578125 -0.609375 -2.15625q-0.59375 -0.578125 -2.515625 -1.015625q-1.015625 -0.234375 -1.015625 -1.0q0 -0.34375 0.28125 -0.53125q0.296875 -0.1875 0.6875 -0.1875q1.765625 0 3.640625 0.140625q2.3125 0.09375 3.21875 0.09375q0.96875 0 3.453125 -0.09375q2.6875 -0.09375 3.75 -0.09375q0.859375 0 0.859375 0.671875q0 0.4375 -0.25 0.65625q-0.234375 0.203125 -0.75 0.34375q-2.015625 0.578125 -2.6875 1.1875q-0.671875 0.59375 -0.671875 1.984375l0 21.609375q0 1.34375 0.5625 1.921875q0.578125 0.5625 2.03125 0.5625l4.890625 0q1.96875 0 3.40625 -1.296875q1.4375 -1.390625 2.546875 -3.78125q0.421875 -0.921875 0.703125 -1.234375q0.296875 -0.3125 0.59375 -0.3125q0.328125 0 0.5 0.3125q0.171875 0.3125 0.171875 0.65625q0 0.140625 -0.109375 0.40625q-0.09375 0.265625 -0.09375 0.546875q-0.71875 2.59375 -0.984375 3.75q-0.25 1.15625 -0.40625 2.734375q-0.09375 0.90625 -0.765625 0.90625l-5.515625 -0.09375q-10.515625 -0.140625 -11.140625 -0.140625q-1.8125 0 -3.84375 0.140625l-2.96875 0.09375zm44.112427 0.4375q-4.421875 0 -8.234375 -1.984375q-3.8125 -2.0 -6.09375 -5.59375q-2.28125 -3.609375 -2.28125 -8.21875q0 -4.40625 1.984375 -8.25q2.0 -3.84375 5.859375 -6.171875q3.875 -2.328125 9.203125 -2.328125q4.453125 0 8.265625 2.0q3.828125 1.984375 6.109375 5.59375q2.28125 3.59375 2.28125 8.203125q0 4.421875 -2.0 8.265625q-1.984375 3.828125 -5.875 6.15625q-3.890625 2.328125 -9.21875 2.328125zm0.859375 -2.203125q3.984375 0 6.125 -3.28125q2.140625 -3.296875 2.140625 -8.8125q0 -4.140625 -1.0625 -7.78125q-1.046875 -3.65625 -3.21875 -5.921875q-2.15625 -2.28125 -5.328125 -2.28125q-3.984375 0 -6.09375 3.265625q-2.109375 3.25 -2.109375 8.734375q0 4.125 1.046875 7.796875q1.0625 3.671875 3.203125 5.984375q2.140625 2.296875 5.296875 2.296875z" fill-rule="nonzero"></path><path fill="#000000" d="m674.3364 223.40402q1.640625 0 1.640625 0.765625q0 0.328125 -0.296875 0.5q-0.28125 0.171875 -0.640625 0.296875q-0.359375 0.109375 -0.546875 0.15625q-1.390625 0.390625 -2.21875 1.234375q-0.8125 0.828125 -1.34375 2.125l-11.171875 26.21875q-0.203125 0.421875 -0.421875 0.640625q-0.203125 0.21875 -0.546875 0.21875q-0.71875 0 -1.15625 -0.90625l-1.1875 -2.5q-0.53125 -1.109375 -1.765625 -3.75q-1.21875 -2.640625 -2.46875 -5.46875q-0.140625 -0.28125 -0.328125 -0.28125q-0.203125 0 -0.34375 0.328125l-6.0 11.5625q-0.28125 0.625 -0.484375 0.890625q-0.1875 0.265625 -0.5625 0.265625q-0.296875 0 -0.484375 -0.234375q-0.1875 -0.234375 -0.34375 -0.546875q-0.140625 -0.3125 -0.1875 -0.46875l-12.09375 -26.15625q-0.625 -1.296875 -1.296875 -2.015625q-0.671875 -0.71875 -1.96875 -1.046875q-0.765625 -0.296875 -1.078125 -0.453125q-0.3125 -0.171875 -0.3125 -0.609375q0 -0.296875 0.375 -0.484375q0.390625 -0.1875 0.875 -0.1875q0.953125 0 3.265625 0.09375q2.203125 0.09375 3.109375 0.09375q0.96875 0 2.890625 -0.09375q2.015625 -0.09375 2.96875 -0.09375q0.34375 0 0.71875 0.09375q0.296875 -0.09375 0.484375 -0.09375q0.953125 0 3.453125 0.09375q2.40625 0.09375 3.359375 0.09375q0.875 0 2.78125 -0.09375q2.015625 -0.09375 2.984375 -0.09375q0.71875 0 1.140625 0.171875q0.4375 0.15625 0.4375 0.5q0 0.328125 -0.296875 0.546875q-0.28125 0.21875 -0.734375 0.390625q-0.453125 0.171875 -0.6875 0.265625q-1.0625 0.234375 -1.0625 1.09375q0 0.25 0.140625 0.625l0.390625 1.015625q0.90625 2.6875 1.875 4.890625q0.28125 0.578125 0.46875 0.578125q0.15625 0 0.390625 -0.578125q0.28125 -0.578125 0.765625 -1.8125q0.484375 -1.25 0.765625 -1.984375q0.046875 -0.140625 0.625 -1.671875q0.25 -0.390625 0.25 -0.90625q0 -0.53125 -0.359375 -0.84375q-0.359375 -0.3125 -0.984375 -0.609375q-0.484375 -0.234375 -0.75 -0.421875q-0.265625 -0.203125 -0.265625 -0.53125q0 -0.34375 0.21875 -0.5q0.21875 -0.171875 0.890625 -0.171875q0.953125 0 1.59375 0.078125q0.65625 0.0625 1.1875 0.0625q0.328125 0 1.0 -0.09375q1.875 -0.140625 2.5 -0.140625q1.4375 0 1.4375 0.765625q0 0.4375 -0.3125 0.609375q-0.3125 0.15625 -0.984375 0.34375q-1.34375 0.390625 -2.046875 1.0625q-0.6875 0.671875 -1.359375 1.96875q-0.859375 1.625 -3.265625 6.671875q-0.1875 0.390625 -0.1875 0.953125q0 0.71875 0.296875 1.453125l3.6875 8.484375q0.140625 0.34375 0.234375 0.34375q0.15625 0 0.34375 -0.4375q3.59375 -8.015625 6.765625 -16.65625q0.578125 -1.484375 0.578125 -2.109375q0 -1.390625 -1.34375 -1.671875q-1.484375 -0.4375 -1.484375 -1.0625q0 -0.296875 0.40625 -0.453125q0.40625 -0.171875 0.984375 -0.171875q1.203125 0 1.875 0.046875q0.671875 0.046875 1.09375 0.046875q0.53125 0 1.59375 -0.09375q2.015625 -0.140625 2.53125 -0.140625zm-24.046875 17.375q0.296875 -0.578125 0.296875 -0.921875q0 -0.28125 -0.25 -0.90625l-4.9375 -10.515625q-0.484375 -1.1875 -1.46875 -2.03125q-0.984375 -0.84375 -2.375 -1.171875q-0.53125 -0.203125 -0.578125 -0.25q-0.140625 0.046875 -0.359375 0.09375q-0.203125 0.046875 -0.5 0.09375q-0.71875 0.15625 -0.890625 0.5q-0.15625 0.328125 -0.15625 1.0q0 0.421875 0.234375 1.390625l3.40625 7.96875q2.59375 6.0 4.125 9.6875q0.25 0.578125 0.390625 0.578125q0.1875 0 0.421875 -0.53125l2.640625 -4.984375zm43.397583 14.78125q-4.421875 0 -8.234375 -1.984375q-3.8125 -2.0 -6.09375 -5.59375q-2.28125 -3.609375 -2.28125 -8.21875q0 -4.40625 1.984375 -8.25q2.0 -3.84375 5.859375 -6.171875q3.875 -2.328125 9.203125 -2.328125q4.453125 0 8.265625 2.0q3.828125 1.984375 6.109375 5.59375q2.28125 3.59375 2.28125 8.203125q0 4.421875 -2.0 8.265625q-1.984375 3.828125 -5.875 6.15625q-3.890625 2.328125 -9.21875 2.328125zm0.859375 -2.203125q3.984375 0 6.125 -3.28125q2.140625 -3.296875 2.140625 -8.8125q0 -4.140625 -1.0625 -7.78125q-1.046875 -3.65625 -3.21875 -5.921875q-2.15625 -2.28125 -5.328125 -2.28125q-3.984375 0 -6.09375 3.265625q-2.109375 3.25 -2.109375 8.734375q0 4.125 1.046875 7.796875q1.0625 3.671875 3.203125 5.984375q2.140625 2.296875 5.296875 2.296875zm48.57379 2.546875q-3.40625 0 -5.421875 -1.125q-2.015625 -1.140625 -3.640625 -3.296875q-1.78125 -2.25 -3.15625 -4.40625q-1.359375 -2.171875 -2.84375 -5.140625q-0.484375 -1.0625 -1.296875 -1.5q-0.8125 -0.46875 -1.640625 -0.46875q-0.515625 0 -0.515625 0.953125l0 9.171875q0 1.484375 0.78125 2.15625q0.796875 0.671875 2.859375 1.109375q0.53125 0.09375 0.796875 0.3125q0.265625 0.203125 0.265625 0.640625q0 0.71875 -0.921875 0.71875q-1.8125 0 -3.9375 -0.140625q-2.578125 -0.09375 -3.5 -0.09375q-0.90625 0 -3.40625 0.09375q-1.875 0.140625 -3.59375 0.140625q-0.390625 0 -0.6875 -0.1875q-0.28125 -0.1875 -0.28125 -0.484375q0 -0.8125 1.015625 -1.0q1.875 -0.390625 2.546875 -1.03125q0.671875 -0.65625 0.671875 -2.140625l0 -21.546875q0 -1.734375 -0.5625 -2.421875q-0.546875 -0.703125 -2.328125 -1.046875q-1.09375 -0.1875 -1.09375 -1.0q0 -0.296875 0.28125 -0.5q0.28125 -0.21875 0.765625 -0.21875q1.640625 0 3.65625 0.1875q0.375 0 1.1875 0.078125q0.828125 0.0625 1.640625 0.0625q0.90625 0 2.546875 -0.1875q2.484375 -0.234375 4.078125 -0.234375q5.65625 0 8.65625 1.953125q3.0 1.9375 3.0 5.765625q0 2.9375 -1.78125 4.765625q-1.765625 1.8125 -4.359375 2.671875q-0.328125 0.15625 -0.046875 0.578125q2.40625 3.65625 4.421875 6.296875q2.015625 2.640625 4.171875 4.65625q1.390625 1.34375 2.953125 1.703125q1.5625 0.359375 3.765625 0.359375q0.71875 0 0.71875 0.859375q0 1.484375 -1.5625 2.203125q-1.5625 0.734375 -4.203125 0.734375zm-16.703125 -17.484375q2.640625 0 4.0625 -1.71875q1.421875 -1.734375 1.421875 -4.5625q0 -6.671875 -5.28125 -6.671875q-1.109375 0 -1.546875 0.890625q-0.421875 0.890625 -0.421875 3.515625q-0.046875 1.453125 -0.046875 6.78125q0 0.953125 0.453125 1.359375q0.453125 0.40625 1.359375 0.40625zm24.245728 16.703125q-0.4375 0 -0.71875 -0.21875q-0.28125 -0.203125 -0.28125 -0.5q0 -0.328125 0.28125 -0.59375q0.28125 -0.265625 0.71875 -0.40625q1.734375 -0.484375 2.375 -1.078125q0.65625 -0.609375 0.65625 -2.0l0 -21.984375q0 -1.578125 -0.609375 -2.15625q-0.59375 -0.578125 -2.515625 -1.015625q-1.015625 -0.234375 -1.015625 -1.0q0 -0.34375 0.28125 -0.53125q0.296875 -0.1875 0.6875 -0.1875q1.765625 0 3.640625 0.140625q2.3125 0.09375 3.21875 0.09375q0.96875 0 3.453125 -0.09375q2.6875 -0.09375 3.75 -0.09375q0.859375 0 0.859375 0.671875q0 0.4375 -0.25 0.65625q-0.234375 0.203125 -0.75 0.34375q-2.015625 0.578125 -2.6875 1.1875q-0.671875 0.59375 -0.671875 1.984375l0 21.609375q0 1.34375 0.5625 1.921875q0.578125 0.5625 2.03125 0.5625l4.890625 0q1.96875 0 3.40625 -1.296875q1.4375 -1.390625 2.546875 -3.78125q0.421875 -0.921875 0.703125 -1.234375q0.296875 -0.3125 0.59375 -0.3125q0.328125 0 0.5 0.3125q0.171875 0.3125 0.171875 0.65625q0 0.140625 -0.109375 0.40625q-0.09375 0.265625 -0.09375 0.546875q-0.71875 2.59375 -0.984375 3.75q-0.25 1.15625 -0.40625 2.734375q-0.09375 0.90625 -0.765625 0.90625l-5.515625 -0.09375q-10.515625 -0.140625 -11.140625 -0.140625q-1.8125 0 -3.84375 0.140625l-2.96875 0.09375zm44.456177 0.109375q-2.3125 0 -6.34375 -0.203125q-2.15625 -0.140625 -3.40625 -0.140625l-3.171875 0.046875q-2.5 0.09375 -3.59375 0.09375q-0.390625 0 -0.6875 -0.1875q-0.28125 -0.1875 -0.28125 -0.484375q0 -0.8125 1.015625 -1.0q1.875 -0.390625 2.515625 -1.015625q0.65625 -0.625 0.65625 -2.109375l0 -21.796875q0 -1.578125 -0.625 -2.203125q-0.625 -0.625 -2.546875 -1.0625q-1.015625 -0.234375 -1.015625 -1.0q0 -0.34375 0.28125 -0.53125q0.296875 -0.1875 0.6875 -0.1875q1.765625 0 3.546875 0.140625q2.3125 0.09375 3.265625 0.09375q0.8125 0 4.46875 -0.1875q3.265625 -0.234375 5.328125 -0.234375q4.796875 0 8.703125 1.96875q3.921875 1.953125 6.140625 5.515625q2.234375 3.546875 2.234375 8.015625q0 4.359375 -2.0625 8.140625q-2.0625 3.765625 -5.984375 6.046875q-3.90625 2.28125 -9.125 2.28125zm-0.734375 -2.453125q4.8125 0 7.328125 -3.40625q2.515625 -3.40625 2.515625 -9.3125q0 -4.28125 -1.21875 -7.484375q-1.21875 -3.21875 -3.578125 -5.0q-2.359375 -1.78125 -5.5625 -1.78125q-2.640625 0 -3.65625 0.3125q-1.0 0.3125 -1.0 1.515625l0 20.921875q0 2.3125 1.296875 3.28125q1.296875 0.953125 3.875 0.953125z" fill-rule="nonzero"></path></g></svg>

