<?xml version="1.0" standalone="yes"?>

<svg version="1.1" viewBox="0.0 0.0 960.0 720.0" fill="none" stroke="none" stroke-linecap="square" stroke-miterlimit="10" xmlns="http://www.w3.org/2000/svg" xmlns:xlink="http://www.w3.org/1999/xlink"><clipPath id="p.0"><path d="m0 0l960.0 0l0 720.0l-960.0 0l0 -720.0z" clip-rule="nonzero"></path></clipPath><g clip-path="url(#p.0)"><path fill="#000000" fill-opacity="0.0" d="m0 0l960.0 0l0 720.0l-960.0 0z" fill-rule="evenodd"></path><path fill="#a4c2f4" d="m158.86613 360.0l0 0c0 -160.98013 143.77654 -291.48032 321.13385 -291.48032l0 0c177.35736 0 321.13385 130.50018 321.13385 291.48032l0 0c0 160.9801 -143.77649 291.4803 -321.13385 291.4803l0 0c-177.35733 0 -321.13385 -130.50018 -321.13385 -291.4803z" fill-rule="evenodd"></path><path stroke="#000000" stroke-width="1.0" stroke-linejoin="round" stroke-linecap="butt" d="m158.86613 360.0l0 0c0 -160.98013 143.77654 -291.48032 321.13385 -291.48032l0 0c177.35736 0 321.13385 130.50018 321.13385 291.48032l0 0c0 160.9801 -143.77649 291.4803 -321.13385 291.4803l0 0c-177.35733 0 -321.13385 -130.50018 -321.13385 -291.4803z" fill-rule="evenodd"></path><path fill="#ffd966" d="m227.37552 293.7343l189.05865 0.0011291504l58.421143 -157.94818l58.421112 157.94818l189.05865 -0.0011291504l-152.9524 97.61624l58.423523 157.94748l-152.9509 -97.61804l-152.95093 97.61804l58.423553 -157.94748z" fill-rule="evenodd"></path><path stroke="#666666" stroke-width="1.0" stroke-linejoin="round" stroke-linecap="butt" d="m227.37552 293.7343l189.05865 0.0011291504l58.421143 -157.94818l58.421112 157.94818l189.05865 -0.0011291504l-152.9524 97.61624l58.423523 157.94748l-152.9509 -97.61804l-152.95093 97.61804l58.423553 -157.94748z" fill-rule="evenodd"></path></g></svg>

